{
  "accessors": [
    {
      "bufferView": 2,
      "componentType": 5126,
      "count": 792,
      "max": [
        185.66133117675781,
        187.65690612792969,
        10.769220352172852
      ],
      "min": [
        -186.0711669921875,
        -178.42813110351562,
        -2.0652427673339844
      ],
      "type": "VEC3"
    },
    {
      "bufferView": 2,
      "byteOffset": 9504,
      "componentType": 5126,
      "count": 792,
      "max": [
        0.99929571151733398,
        1,
        1
      ],
      "min": [
        -0.99941843748092651,
        -1,
        -1
      ],
      "type": "VEC3"
    },
    {
      "bufferView": 3,
      "componentType": 5126,
      "count": 792,
      "max": [
        1,
        0.98504459857940674,
        1,
        1
      ],
      "min": [
        -1,
        -0.98504459857940674,
        -1,
        1
      ],
      "type": "VEC4"
    },
    {
      "bufferView": 1,
      "componentType": 5126,
      "count": 792,
      "max": [
        0.7839999794960022,
        0.40900003910064697
      ],
      "min": [
        0.75900000333786011,
        0.38400006294250488
      ],
      "type": "VEC2"
    },
    {
      "bufferView": 0,
      "componentType": 5125,
      "count": 972,
      "max": [
        791
      ],
      "min": [
        0
      ],
      "type": "SCALAR"
    },
    {
      "bufferView": 2,
      "byteOffset": 19008,
      "componentType": 5126,
      "count": 281,
      "max": [
        264.93283081054688,
        45.411979675292969,
        28.506240844726562
      ],
      "min": [
        -30.153678894042969,
        -45.411979675292969,
        -28.506240844726562
      ],
      "type": "VEC3"
    },
    {
      "bufferView": 2,
      "byteOffset": 22380,
      "componentType": 5126,
      "count": 281,
      "max": [
        0.98938113451004028,
        1,
        0.99878549575805664
      ],
      "min": [
        -0.96592593193054199,
        -1,
        -0.99878549575805664
      ],
      "type": "VEC3"
    },
    {
      "bufferView": 3,
      "byteOffset": 12672,
      "componentType": 5126,
      "count": 281,
      "max": [
        1,
        3.0187547336080079e-24,
        0.96592593193054199,
        1
      ],
      "min": [
        -1,
        -9.2862647932341302e-41,
        -0.98938119411468506,
        1
      ],
      "type": "VEC4"
    },
    {
      "bufferView": 1,
      "byteOffset": 6336,
      "componentType": 5126,
      "count": 281,
      "max": [
        0.093999989330768585,
        0.71500009298324585
      ],
      "min": [
        0.069570012390613556,
        0.6905701756477356
      ],
      "type": "VEC2"
    },
    {
      "bufferView": 0,
      "byteOffset": 3888,
      "componentType": 5125,
      "count": 504,
      "max": [
        280
      ],
      "min": [
        0
      ],
      "type": "SCALAR"
    },
    {
      "bufferView": 2,
      "byteOffset": 25752,
      "componentType": 5126,
      "count": 1371,
      "max": [
        969.1585693359375,
        2500.55810546875,
        597.513427734375
      ],
      "min": [
        -485.19964599609375,
        -1370.46875,
        -458.5281982421875
      ],
      "type": "VEC3"
    },
    {
      "bufferView": 2,
      "byteOffset": 42204,
      "componentType": 5126,
      "count": 1371,
      "max": [
        0.99984389543533325,
        1,
        0.99941819906234741
      ],
      "min": [
        -0.99966561794281006,
        -1,
        -0.99941372871398926
      ],
      "type": "VEC3"
    },
    {
      "bufferView": 3,
      "byteOffset": 17168,
      "componentType": 5126,
      "count": 1371,
      "max": [
        1,
        1,
        1,
        1
      ],
      "min": [
        -0.9979780912399292,
        -0.9999622106552124,
        -1,
        -1
      ],
      "type": "VEC4"
    },
    {
      "bufferView": 1,
      "byteOffset": 8584,
      "componentType": 5126,
      "count": 1371,
      "max": [
        0.84167510271072388,
        0.73000001907348633
      ],
      "min": [
        0.051000013947486877,
        0.075033664703369141
      ],
      "type": "VEC2"
    },
    {
      "bufferView": 0,
      "byteOffset": 5904,
      "componentType": 5125,
      "count": 2979,
      "max": [
        1370
      ],
      "min": [
        0
      ],
      "type": "SCALAR"
    },
    {
      "bufferView": 2,
      "byteOffset": 58656,
      "componentType": 5126,
      "count": 163,
      "max": [
        202.72190856933594,
        93.296867370605469,
        186.61167907714844
      ],
      "min": [
        -202.72190856933594,
        -93.296867370605469,
        -208.66680908203125
      ],
      "type": "VEC3"
    },
    {
      "bufferView": 2,
      "byteOffset": 60612,
      "componentType": 5126,
      "count": 163,
      "max": [
        0.97492802143096924,
        1.9848299436311945e-14,
        1
      ],
      "min": [
        -0.97492802143096924,
        -1.9697276849948292e-14,
        -1
      ],
      "type": "VEC3"
    },
    {
      "bufferView": 3,
      "byteOffset": 39104,
      "componentType": 5126,
      "count": 163,
      "max": [
        1,
        0.02325955405831337,
        0.97492802143096924,
        -1
      ],
      "min": [
        -1,
        -0.0007994280313141644,
        -0.97492802143096924,
        -1
      ],
      "type": "VEC4"
    },
    {
      "bufferView": 1,
      "byteOffset": 19552,
      "componentType": 5126,
      "count": 163,
      "max": [
        0.10500002652406693,
        0.61502605676651001
      ],
      "min": [
        0.10170605033636093,
        0.61426806449890137
      ],
      "type": "VEC2"
    },
    {
      "bufferView": 0,
      "byteOffset": 17820,
      "componentType": 5125,
      "count": 189,
      "max": [
        162
      ],
      "min": [
        0
      ],
      "type": "SCALAR"
    },
    {
      "bufferView": 2,
      "byteOffset": 62568,
      "componentType": 5126,
      "count": 546,
      "max": [
        2073.66748046875,
        124.71527099609375,
        2075.264892578125
      ],
      "min": [
        -2098.401123046875,
        -4.3901681900024414,
        -2096.15966796875
      ],
      "type": "VEC3"
    },
    {
      "bufferView": 2,
      "byteOffset": 69120,
      "componentType": 5126,
      "count": 546,
      "max": [
        0.96826189756393433,
        1,
        0.97278982400894165
      ],
      "min": [
        -0.9732174277305603,
        -1,
        -0.97734177112579346
      ],
      "type": "VEC3"
    },
    {
      "bufferView": 3,
      "byteOffset": 41712,
      "componentType": 5126,
      "count": 546,
      "max": [
        1,
        0.010768893174827099,
        0.98647773265838623,
        1
      ],
      "min": [
        -1,
        -1,
        -0.98647773265838623,
        -1
      ],
      "type": "VEC4"
    },
    {
      "bufferView": 1,
      "byteOffset": 20856,
      "componentType": 5126,
      "count": 546,
      "max": [
        0.88647663593292236,
        0.74324047565460205
      ],
      "min": [
        0.049469947814941406,
        0.024621963500976562
      ],
      "type": "VEC2"
    },
    {
      "bufferView": 0,
      "byteOffset": 18576,
      "componentType": 5125,
      "count": 690,
      "max": [
        545
      ],
      "min": [
        0
      ],
      "type": "SCALAR"
    },
    {
      "bufferView": 2,
      "byteOffset": 75672,
      "componentType": 5126,
      "count": 270,
      "max": [
        613.21197509765625,
        404.73422241210938,
        43.897136688232422
      ],
      "min": [
        -146.60993957519531,
        -1241.403076171875,
        -551.75396728515625
      ],
      "type": "VEC3"
    },
    {
      "bufferView": 2,
      "byteOffset": 78912,
      "componentType": 5126,
      "count": 270,
      "max": [
        0.99848926067352295,
        1,
        0.9986003041267395
      ],
      "min": [
        -0.99848926067352295,
        -1,
        -0.99860042333602905
      ],
      "type": "VEC3"
    },
    {
      "bufferView": 3,
      "byteOffset": 50448,
      "componentType": 5126,
      "count": 270,
      "max": [
        0.99860042333602905,
        1,
        0.99848920106887817,
        1
      ],
      "min": [
        -0.99860036373138428,
        -1,
        -0.99848926067352295,
        1
      ],
      "type": "VEC4"
    },
    {
      "bufferView": 1,
      "byteOffset": 25224,
      "componentType": 5126,
      "count": 270,
      "max": [
        0.79400002956390381,
        0.036153554916381836
      ],
      "min": [
        0.78177160024642944,
        0.023993134498596191
      ],
      "type": "VEC2"
    },
    {
      "bufferView": 0,
      "byteOffset": 21336,
      "componentType": 5125,
      "count": 456,
      "max": [
        269
      ],
      "min": [
        0
      ],
      "type": "SCALAR"
    },
    {
      "bufferView": 4,
      "componentType": 5126,
      "count": 697,
      "max": [
        12
      ],
      "min": [
        0
      ],
      "type": "SCALAR"
    },
    {
      "bufferView": 6,
      "componentType": 5126,
      "count": 697,
      "max": [
        0.70698940753936768,
        0.70710676908493042,
        0.70698940753936768,
        0.70710676908493042
      ],
      "min": [
        -0.49784353375434875,
        -0.4991854727268219,
        -0.49784353375434875,
        -0.4991854727268219
      ],
      "type": "VEC4"
    },
    {
      "bufferView": 4,
      "byteOffset": 2788,
      "componentType": 5126,
      "count": 697,
      "max": [
        12
      ],
      "min": [
        0
      ],
      "type": "SCALAR"
    },
    {
      "bufferView": 6,
      "byteOffset": 11152,
      "componentType": 5126,
      "count": 697,
      "max": [
        1.4559953732819588e-16,
        0.99996238946914673,
        8.6588273905315873e-17,
        1
      ],
      "min": [
        -8.6588273905315873e-17,
        -0.86312198638916016,
        -1.4107358882810994e-16,
        -0.48994418978691101
      ],
      "type": "VEC4"
    },
    {
      "bufferView": 4,
      "byteOffset": 5576,
      "componentType": 5126,
      "count": 697,
      "max": [
        12
      ],
      "min": [
        0
      ],
      "type": "SCALAR"
    },
    {
      "bufferView": 5,
      "componentType": 5126,
      "count": 697,
      "max": [
        29.947196960449219,
        90.117721557617188,
        13.543354988098145
      ],
      "min": [
        29.947196960449219,
        -98.389747619628906,
        13.543354988098145
      ],
      "type": "VEC3"
    },
    {
      "bufferView": 4,
      "byteOffset": 8364,
      "componentType": 5126,
      "count": 697,
      "max": [
        12
      ],
      "min": [
        0
      ],
      "type": "SCALAR"
    },
    {
      "bufferView": 6,
      "byteOffset": 22304,
      "componentType": 5126,
      "count": 697,
      "max": [
        0.012340699322521687,
        -0.70699906349182129,
        0.012340699322521687,
        0.70710676908493042
      ],
      "min": [
        -0.012340730987489223,
        -0.70710676908493042,
        -0.012340730987489223,
        0.70699912309646606
      ],
      "type": "VEC4"
    }
  ],
  "animations": [
    {
      "channels": [
        {
          "sampler": 0,
          "target": {
            "node": 6,
            "path": "rotation"
          }
        },
        {
          "sampler": 1,
          "target": {
            "node": 15,
            "path": "rotation"
          }
        },
        {
          "sampler": 2,
          "target": {
            "node": 5,
            "path": "translation"
          }
        },
        {
          "sampler": 3,
          "target": {
            "node": 5,
            "path": "rotation"
          }
        }
      ],
      "name": "Main",
      "samplers": [
        {
          "input": 30,
          "interpolation": "LINEAR",
          "output": 31
        },
        {
          "input": 32,
          "interpolation": "LINEAR",
          "output": 33
        },
        {
          "input": 34,
          "interpolation": "LINEAR",
          "output": 35
        },
        {
          "input": 36,
          "interpolation": "LINEAR",
          "output": 37
        }
      ]
    }
  ],
  "asset": {
    "extras": {
      "author": "antonmoek (https://sketchfab.com/antonmoek)",
      "license": "CC-BY-4.0 (http://creativecommons.org/licenses/by/4.0/)",
      "source": "https://sketchfab.com/models/5bbed2de9baa4a13a7faa72653b78b64",
      "title": "Low Poly Helicopter"
    },
    "generator": "Sketchfab-3.33.1",
    "version": "2.0"
  },
  "bufferViews": [
    {
      "buffer": 0,
      "byteLength": 23160,
      "byteOffset": 0,
      "name": "floatBufferViews",
      "target": 34963
    },
    {
      "buffer": 0,
      "byteLength": 27384,
      "byteOffset": 23160,
      "byteStride": 8,
      "name": "floatBufferViews",
      "target": 34962
    },
    {
      "buffer": 0,
      "byteLength": 82152,
      "byteOffset": 50544,
      "byteStride": 12,
      "name": "floatBufferViews",
      "target": 34962
    },
    {
      "buffer": 0,
      "byteLength": 54768,
      "byteOffset": 132696,
      "byteStride": 16,
      "name": "floatBufferViews",
      "target": 34962
    },
    {
      "buffer": 0,
      "byteLength": 11152,
      "byteOffset": 187464,
      "name": "floatBufferViews"
    },
    {
      "buffer": 0,
      "byteLength": 8364,
      "byteOffset": 198616,
      "byteStride": 12,
      "name": "floatBufferViews"
    },
    {
      "buffer": 0,
      "byteLength": 33456,
      "byteOffset": 206980,
      "byteStride": 16,
      "name": "floatBufferViews"
    }
  ],
  "buffers": [
    {
      "byteLength": 240436,
      "uri": "scene.bin"
    }
  ],
  "images": [
    {
      "uri": "textures/Palette_baseColor.png"
    }
  ],
  "materials": [
    {
      "doubleSided": true,
      "emissiveFactor": [
        0,
        0,
        0
      ],
      "name": "Palette",
      "pbrMetallicRoughness": {
        "baseColorFactor": [
          1,
          1,
          1,
          1
        ],
        "baseColorTexture": {
          "index": 0,
          "texCoord": 0
        },
        "metallicFactor": 0,
        "roughnessFactor": 0.038030312300000001
      }
    }
  ],
  "meshes": [
    {
      "name": "Propeller_Palette_0",
      "primitives": [
        {
          "attributes": {
            "NORMAL": 1,
            "POSITION": 0,
            "TANGENT": 2,
            "TEXCOORD_0": 3
          },
          "indices": 4,
          "material": 0,
          "mode": 4
        }
      ]
    },
    {
      "name": "Tail_part_Palette_0",
      "primitives": [
        {
          "attributes": {
            "NORMAL": 6,
            "POSITION": 5,
            "TANGENT": 7,
            "TEXCOORD_0": 8
          },
          "indices": 9,
          "material": 0,
          "mode": 4
        }
      ]
    },
    {
      "name": "Copter_Palette_0",
      "primitives": [
        {
          "attributes": {
            "NORMAL": 11,
            "POSITION": 10,
            "TANGENT": 12,
            "TEXCOORD_0": 13
          },
          "indices": 14,
          "material": 0,
          "mode": 4
        }
      ]
    },
    {
      "name": "Cylinder_Palette_0",
      "primitives": [
        {
          "attributes": {
            "NORMAL": 16,
            "POSITION": 15,
            "TANGENT": 17,
            "TEXCOORD_0": 18
          },
          "indices": 19,
          "material": 0,
          "mode": 4
        }
      ]
    },
    {
      "name": "Propeller_2_Palette_0",
      "primitives": [
        {
          "attributes": {
            "NORMAL": 21,
            "POSITION": 20,
            "TANGENT": 22,
            "TEXCOORD_0": 23
          },
          "indices": 24,
          "material": 0,
          "mode": 4
        }
      ]
    },
    {
      "name": "Legs_Palette_0",
      "primitives": [
        {
          "attributes": {
            "NORMAL": 26,
            "POSITION": 25,
            "TANGENT": 27,
            "TEXCOORD_0": 28
          },
          "indices": 29,
          "material": 0,
          "mode": 4
        }
      ]
    }
  ],
  "nodes": [
    {
      "children": [
        1
      ],
      "name": "RootNode (gltf orientation matrix)",
      "rotation": [
        -0.70710678118654746,
        -0,
        -0,
        0.70710678118654757
      ]
    },
    {
      "children": [
        2
      ],
      "name": "RootNode (model correction matrix)"
    },
    {
      "children": [
        3
      ],
      "matrix": [
        1,
        0,
        0,
        0,
        0,
        0,
        1,
        0,
        0,
        -1,
        0,
        0,
        0,
        0,
        0,
        1
      ],
      "name": "0649b36a3fdd470aa6f7411146aeda37.fbx"
    },
    {
      "children": [
        4
      ],
      "name": ""
    },
    {
      "children": [
        5
      ],
      "name": "RootNode"
    },
    {
      "children": [
        6,
        8,
        10,
        15,
        17
      ],
      "name": "Helicopter",
      "rotation": [
        -0,
        -0.7071068286895752,
        0,
        0.7071068286895752
      ],
      "translation": [
        29.947196960449219,
        -50.389747619628906,
        13.543354988098145
      ]
    },
    {
      "children": [
        7
      ],
      "name": "Propeller",
      "rotation": [
        -6.2803702566467407e-16,
        0.7071068286895752,
        6.2803702566467407e-16,
        0.7071068286895752
      ],
      "translation": [
        -2.3323237895965576,
        559.6668701171875,
        -2670.830078125
      ]
    },
    {
      "mesh": 0,
      "name": "Propeller_Palette_0"
    },
    {
      "children": [
        9
      ],
      "name": "Tail_part",
      "rotation": [
        -0.5,
        0.5,
        0.5,
        0.5
      ],
      "translation": [
        -0.16053961217403412,
        560.9136962890625,
        -2674.07666015625
      ]
    },
    {
      "mesh": 1,
      "name": "Tail_part_Palette_0"
    },
    {
      "children": [
        11,
        13
      ],
      "name": "Copter_Body",
      "rotation": [
        -6.2803702566467407e-16,
        0.70710676908493042,
        6.2803697272511487e-16,
        0.7071068286895752
      ],
      "translation": [
        -0.16064265370368958,
        -213.89926147460938,
        -229.12193298339844
      ]
    },
    {
      "children": [
        12
      ],
      "name": "Copter",
      "rotation": [
        2.3396206332139391e-24,
        3.4863060661489777e-31,
        -0.7071068286895752,
        0.7071068286895752
      ],
      "translation": [
        237.96856689453125,
        717.51678466796875,
        -71.453941345214844
      ]
    },
    {
      "mesh": 2,
      "name": "Copter_Palette_0"
    },
    {
      "children": [
        14
      ],
      "name": "Cylinder",
      "rotation": [
        0.7071068286895752,
        1.1698100207841301e-24,
        1.1698100207841301e-24,
        0.7071068286895752
      ],
      "translation": [
        2446.42529296875,
        767.20294189453125,
        -5.5067062021407764e-14
      ]
    },
    {
      "mesh": 3,
      "name": "Cylinder_Palette_0"
    },
    {
      "children": [
        16
      ],
      "name": "Propeller_2",
      "translation": [
        3.2918770313262939,
        603.5220947265625,
        -219.39370727539062
      ]
    },
    {
      "mesh": 4,
      "name": "Propeller_2_Palette_0"
    },
    {
      "children": [
        18
      ],
      "name": "Legs",
      "rotation": [
        -0.67394095659255981,
        -0.21401773393154144,
        0.21401767432689667,
        0.67394095659255981
      ],
      "translation": [
        -331.9676513671875,
        -405.85159301757812,
        -417.25534057617188
      ]
    },
    {
      "mesh": 5,
      "name": "Legs_Palette_0"
    }
  ],
  "samplers": [
    {
      "magFilter": 9729,
      "minFilter": 9987,
      "wrapS": 10497,
      "wrapT": 10497
    }
  ],
  "scene": 0,
  "scenes": [
    {
      "name": "OSG_Scene",
      "nodes": [
        0
      ]
    }
  ],
  "textures": [
    {
      "sampler": 0,
      "source": 0
    }
  ]
}

