{
  "accessors": [
    {
      "bufferView": 1,
      "componentType": 5126,
      "count": 1728,
      "max": [
        5.8373026847839355,
        5.4769115447998047,
        5.4425625801086426
      ],
      "min": [
        -5.8373026847839355,
        -0.30178436636924744,
        -5.4425621032714844
      ],
      "type": "VEC3"
    },
    {
      "bufferView": 1,
      "byteOffset": 20736,
      "componentType": 5126,
      "count": 1728,
      "max": [
        1,
        1,
        1
      ],
      "min": [
        -1,
        -1,
        -1
      ],
      "type": "VEC3"
    },
    {
      "bufferView": 2,
      "componentType": 5126,
      "count": 1728,
      "max": [
        1,
        1,
        1,
        1
      ],
      "min": [
        -1,
        -1,
        -1,
        -1
      ],
      "type": "VEC4"
    },
    {
      "bufferView": 0,
      "componentType": 5125,
      "count": 5292,
      "max": [
        1727
      ],
      "min": [
        0
      ],
      "type": "SCALAR"
    },
    {
      "bufferView": 1,
      "byteOffset": 41472,
      "componentType": 5126,
      "count": 59,
      "max": [
        1.237102746963501,
        4.5177035331726074,
        4.261652946472168
      ],
      "min": [
        -1.237102746963501,
        1.5123156309127808,
        1.173139214515686
      ],
      "type": "VEC3"
    },
    {
      "bufferView": 1,
      "byteOffset": 42180,
      "componentType": 5126,
      "count": 59,
      "max": [
        1,
        0.93254035711288452,
        1
      ],
      "min": [
        -1,
        -2.2262410936946253e-07,
        -4.1080188140085738e-08
      ],
      "type": "VEC3"
    },
    {
      "bufferView": 2,
      "byteOffset": 27648,
      "componentType": 5126,
      "count": 59,
      "max": [
        1,
        0.52015197277069092,
        1.7624152803819015e-07,
        1
      ],
      "min": [
        -1.0573062780849796e-07,
        -3.8193870288694143e-09,
        -0.97593581676483154,
        1
      ],
      "type": "VEC4"
    },
    {
      "bufferView": 0,
      "byteOffset": 21168,
      "componentType": 5125,
      "count": 144,
      "max": [
        58
      ],
      "min": [
        0
      ],
      "type": "SCALAR"
    }
  ],
  "asset": {
    "extras": {
      "author": "rustic.orcullo13 (https://sketchfab.com/rustic.orcullo13)",
      "license": "CC-BY-4.0 (http://creativecommons.org/licenses/by/4.0/)",
      "source": "https://sketchfab.com/models/2f34733cef334127b562a535004034ee",
      "title": "Helicopter"
    },
    "generator": "Sketchfab-3.18.7",
    "version": "2.0"
  },
  "bufferViews": [
    {
      "buffer": 0,
      "byteLength": 21744,
      "byteOffset": 0,
      "name": "floatBufferViews",
      "target": 34963
    },
    {
      "buffer": 0,
      "byteLength": 42888,
      "byteOffset": 21744,
      "byteStride": 12,
      "name": "floatBufferViews",
      "target": 34962
    },
    {
      "buffer": 0,
      "byteLength": 28592,
      "byteOffset": 64632,
      "byteStride": 16,
      "name": "floatBufferViews",
      "target": 34962
    }
  ],
  "buffers": [
    {
      "byteLength": 93224,
      "uri": "scene.bin"
    }
  ],
  "materials": [
    {
      "doubleSided": true,
      "emissiveFactor": [
        0,
        0,
        0
      ],
      "name": "Helicopter_Mat",
      "pbrMetallicRoughness": {
        "baseColorFactor": [
          0.5,
          0.5,
          0.5,
          1
        ],
        "metallicFactor": 1,
        "roughnessFactor": 0.75
      }
    },
    {
      "alphaMode": "BLEND",
      "doubleSided": true,
      "emissiveFactor": [
        0,
        0,
        0
      ],
      "name": "HelicopterWindow_Mat",
      "pbrMetallicRoughness": {
        "baseColorFactor": [
          0.5,
          0.5,
          0.5,
          0.84999999999999998
        ],
        "metallicFactor": 1,
        "roughnessFactor": 0
      }
    }
  ],
  "meshes": [
    {
      "name": "Helicopter_Helicopter_Mat_0",
      "primitives": [
        {
          "attributes": {
            "NORMAL": 1,
            "POSITION": 0,
            "TANGENT": 2
          },
          "indices": 3,
          "material": 0,
          "mode": 4
        }
      ]
    },
    {
      "name": "Helicopter_HelicopterWindow_Mat_0",
      "primitives": [
        {
          "attributes": {
            "NORMAL": 5,
            "POSITION": 4,
            "TANGENT": 6
          },
          "indices": 7,
          "material": 1,
          "mode": 4
        }
      ]
    }
  ],
  "nodes": [
    {
      "children": [
        1
      ],
      "name": "RootNode (gltf orientation matrix)",
      "rotation": [
        -0.70710678118654746,
        -0,
        -0,
        0.70710678118654757
      ]
    },
    {
      "children": [
        2
      ],
      "name": "RootNode (model correction matrix)"
    },
    {
      "children": [
        3
      ],
      "matrix": [
        1,
        0,
        0,
        0,
        0,
        0,
        1,
        0,
        0,
        -1,
        0,
        0,
        0,
        0,
        0,
        1
      ],
      "name": "3e867cee30ce451fb7849b453ed60f3f.fbx"
    },
    {
      "children": [
        4
      ],
      "name": "RootNode"
    },
    {
      "children": [
        5,
        6
      ],
      "name": "Helicopter"
    },
    {
      "mesh": 0,
      "name": "Helicopter_Helicopter_Mat_0"
    },
    {
      "mesh": 1,
      "name": "Helicopter_HelicopterWindow_Mat_0"
    }
  ],
  "scene": 0,
  "scenes": [
    {
      "name": "OSG_Scene",
      "nodes": [
        0
      ]
    }
  ]
}

